<svg width="194" height="32" viewBox="0 0 194 32" fill="none" xmlns="http://www.w3.org/2000/svg">
<path d="M21.539 0H0.763919C0.346784 0 0 0.347839 0 0.774506V7.06967C0 7.5014 0.346784 7.84922 0.763919 7.84922H21.539C21.9597 7.84922 22.3057 7.5014 22.3057 7.06967V0.774506C22.3057 0.347839 21.9597 0 21.539 0Z" fill="white"/>
<path d="M21.539 11.7746H0.763919C0.346784 11.7746 0 12.1224 0 12.5505V18.8457C0 19.2752 0.346784 19.6231 0.763919 19.6231H21.539C21.9597 19.6231 22.3057 19.2752 22.3057 18.8457V12.5505C22.3057 12.1224 21.9597 11.7746 21.539 11.7746Z" fill="white"/>
<path d="M21.539 23.5477H0.763919C0.346784 23.5477 0 23.8984 0 24.3258V30.6166C0 31.049 0.346784 31.3969 0.763919 31.3969H21.539C21.9597 31.3969 22.3057 31.049 22.3057 30.6166V24.3258C22.3057 23.8984 21.9597 23.5477 21.539 23.5477Z" fill="white"/>
<path d="M33.1108 0.0209707H26.9255C26.5034 0.0209707 26.1581 0.371002 26.1581 0.800561V30.6173C26.1581 31.0454 26.5034 31.3969 26.9255 31.3969H33.1108C33.5308 31.3969 33.8754 31.0454 33.8754 30.6173V0.800561C33.8754 0.371002 33.5308 0.0209707 33.1108 0.0209707Z" fill="white"/>
<path d="M143.117 0.00869027H140.835V2.338H143.117V0.00869027Z" fill="white"/>
<path d="M139.603 0.00869027H137.315V2.338H139.603V0.00869027Z" fill="white"/>
<path d="M152.082 11.9466H154.138V0.00794492H152.082V11.9466Z" fill="white"/>
<path d="M147.029 7.51437C147.029 8.85512 146.46 9.38739 145.934 9.61229C145.599 9.76994 145.069 9.83934 144.214 9.83934H137.615C136.278 9.83934 135.373 9.67376 134.759 9.30929C134.192 8.98242 133.576 8.27586 133.576 6.65597V2.96497H131.524V6.72108C131.524 10.1829 133.598 11.9466 137.66 11.9466H145.776C147.559 11.9466 149.083 10.3716 149.083 8.56006V2.98376H147.029V7.51437Z" fill="white"/>
<path d="M158.391 11.2712C158.391 13.0097 157.525 14.012 155.874 14.1646L155.744 14.1769V15.8944L155.893 15.8887C157.41 15.8301 158.532 15.3108 159.22 14.6788C160.048 13.9448 160.451 12.7523 160.451 11.0369V2.98452H158.391V11.2712Z" fill="white"/>
<path d="M112.415 14.576C112.415 14.1848 112.568 13.9903 112.859 13.9903C113.048 13.9903 113.202 14.1284 113.302 14.3837L114.167 13.9708C113.915 13.3655 113.472 13.0524 112.877 13.0524C112.014 13.0524 111.396 13.7358 111.396 14.6173C111.396 14.7735 111.435 14.9492 111.492 15.1452H110.723V16.1439H114.182V15.1228H112.664C112.493 15.0671 112.415 14.8733 112.415 14.576Z" fill="white"/>
<path d="M51.7829 16.227H54.0703V13.9006H51.7829V16.227Z" fill="white"/>
<path d="M48.2638 16.227H50.5506V13.9006H48.2638V16.227Z" fill="white"/>
<path d="M122.911 11.9466H124.956V0.0144405H122.911V11.9466Z" fill="white"/>
<path d="M117.862 7.55919C117.862 9.47558 117.004 9.81475 116.234 9.82922L115.981 9.83571L113.594 1.22138H111.431L113.853 9.82922H110.886V11.9459H116.539C118.322 11.9459 119.919 10.3738 119.919 8.56078V0.0144198H117.862V7.55919Z" fill="white"/>
<path d="M181.228 14.576C181.228 14.1848 181.38 13.9903 181.672 13.9903C181.86 13.9903 182.014 14.1284 182.115 14.3837L182.979 13.9708C182.728 13.3655 182.285 13.0524 181.69 13.0524C180.827 13.0524 180.209 13.7358 180.209 14.6173C180.209 14.7735 180.249 14.9492 180.305 15.1452H179.536V16.1439H182.994V15.1228H181.477C181.307 15.0671 181.228 14.8733 181.228 14.576Z" fill="white"/>
<path d="M191.724 11.9466H193.768V0.00865148H191.724V11.9466Z" fill="white"/>
<path d="M186.674 7.55919C186.674 9.47558 185.816 9.81475 185.045 9.82922L184.792 9.83571L182.407 1.22138H180.243L182.665 9.82922H179.698V11.9459H185.351C187.135 11.9459 188.733 10.3738 188.733 8.56078V0.0115243H186.674V7.55919Z" fill="white"/>
<path d="M106.138 7.55919C106.138 9.47558 105.276 9.82632 104.511 9.82632L103.913 9.83356L102.179 9.82847C102.526 9.18631 102.722 8.49859 102.722 7.74288V2.98448H100.661V7.55919C100.661 9.47558 99.806 9.82632 99.0343 9.82632H98.5468V9.83066L98.4402 9.83356L96.7567 9.82847C97.1014 9.18631 97.294 8.49859 97.294 7.74288V2.98448H95.2388V7.55919C95.2388 9.47558 94.3804 9.82922 93.608 9.82922H92.2777V9.83426L92.2116 9.83571L91.1719 9.82922H85.0876C85.2631 9.42497 85.3683 9.03084 85.3683 8.56078V0.0151615H83.3117V7.55919C83.3117 9.47558 82.4498 9.8191 81.6816 9.83356L81.3931 9.83861L79.0153 1.22138H76.8493L79.2704 9.83571H75.7202V11.9459H104.54C106.739 11.9459 108.194 9.83499 108.194 7.74288V2.98448H106.138V7.55919Z" fill="white"/>
<path d="M70.6903 8.18116C70.6903 9.06993 69.9918 9.88349 68.7674 9.88349C67.5423 9.88349 66.6618 8.90864 66.6618 7.32491V6.59236C66.6618 5.0079 67.4293 3.92027 68.7674 3.68307C69.4709 3.55796 70.6903 3.65704 70.6903 3.65704V8.18116ZM64.7261 5.09832C64.6543 5.53005 64.6067 6.00225 64.6067 6.53088V7.09063C64.6067 7.61926 64.6536 8.09221 64.7261 8.52322C64.8163 9.02437 64.957 9.46041 65.1524 9.83791H61.4501V5.84317C61.4537 5.76434 61.4501 5.58354 61.4501 5.50616C61.4501 3.49577 60.0864 1.6416 57.5012 1.62858C55.7594 1.62858 55.4524 1.63074 53.6759 1.63074V9.82707L49.2487 9.82636C47.9525 9.82636 47.3684 8.89346 47.3684 7.96637V1.63074H45.3033V7.56647C45.2998 7.64457 45.3033 7.98083 45.3033 8.06111C45.3033 10.0672 46.6635 11.9336 49.2487 11.9496C50.4113 11.9496 52.1374 11.9467 53.6759 11.9452V11.9496H55.7474V3.73875H57.5012C58.7995 3.73875 59.3793 4.67091 59.3793 5.6009V11.9467H68.5293L68.5272 11.9423C69.5455 11.9271 72.7611 11.5808 72.7611 8.52756V1.62714C72.1642 1.59026 71.4436 1.54034 70.6782 1.54034C68.3943 1.54034 65.2761 1.83541 64.7261 5.09832Z" fill="white"/>
<path d="M174.672 8.18114C174.672 9.06991 173.974 9.88348 172.75 9.88348C171.525 9.88348 170.643 8.90862 170.643 7.32489V6.59234C170.643 5.00789 171.413 3.92025 172.75 3.68305C173.454 3.55794 174.672 3.65703 174.672 3.65703V8.18114ZM168.709 5.09831C168.636 5.53003 168.589 6.00223 168.589 6.53086V7.09061C168.589 7.61924 168.636 8.09219 168.709 8.5232C168.798 9.02291 168.939 9.45898 169.133 9.83503H167.032C166.263 9.82129 165.398 9.40618 165.404 7.50932V0H163.348V8.56081C163.348 10.3745 164.793 11.9466 166.573 11.9466H172.466L172.465 11.9438C173.432 11.9358 176.743 11.6256 176.743 8.52754V1.62712C176.147 1.59024 175.426 1.54032 174.66 1.54032C172.376 1.54032 169.258 1.83539 168.709 5.09831Z" fill="white"/>
<path d="M53.5087 29.3909H47.3512V26.7694H53.2941V24.7236H47.3512V22.0507H53.5087V19.9268H45.3018V31.5502H53.5087V29.3909Z" fill="white"/>
<path d="M57.6786 23.0985L61.1678 28.1665H61.5721L65.1459 23.1152V31.5516H67.218V19.9275H64.8517L61.4187 24.9253L57.9871 19.9275H55.6086V31.5516H57.6786V23.0985Z" fill="white"/>
<path d="M71.3653 19.9261H69.3159V31.5488H71.3653V19.9261Z" fill="white"/>
<path d="M75.5324 21.9697H78.6812C79.9774 21.9697 80.5594 22.9004 80.5594 23.8275C80.5594 24.7568 79.9937 25.6904 78.6812 25.6904H75.5324V21.9697ZM80.7129 31.5502H83.1738V31.4005L79.853 27.4318C81.9359 26.9834 82.6266 25.3737 82.6266 23.7791C82.6266 21.7716 81.2679 19.9427 78.6812 19.9283C76.9409 19.9283 75.2013 19.9087 73.4617 19.9087V31.5502H75.5324V27.6618H77.5201L80.7129 31.5502Z" fill="white"/>
<path d="M87.9036 27.3146L89.9367 22.3668L91.9776 27.3146H87.9036ZM91.0659 19.9275H88.8146L83.8907 31.5495H86.132L87.0736 29.3561H92.8012L93.73 31.5495H95.9841L91.0659 19.9275Z" fill="white"/>
<path d="M98.2702 31.5495H100.341V21.9176H103.819V19.9282H94.7903V21.9176H98.2702V31.5495Z" fill="white"/>
<path d="M114.126 29.3909H107.97V26.7694H113.91V24.7236H107.97V22.0507H114.126V19.9268H105.914V31.5502H114.126V29.3909Z" fill="white"/>
<path d="M120.703 24.4422C119.388 24.2766 118.259 23.9953 118.259 22.9835C118.259 22.1194 118.996 21.4374 120.53 21.4374C121.724 21.4374 122.758 22.0687 123.13 22.7311L124.774 21.8359C123.947 20.0395 122.176 19.5254 120.471 19.5254C118.452 19.542 116.22 20.5226 116.22 22.9163C116.22 25.5226 118.288 26.1546 120.53 26.4331C121.989 26.6037 123.066 27.0484 123.066 28.1455C123.066 29.4052 121.843 29.8905 120.543 29.8905C119.216 29.8905 117.944 29.3242 117.462 28.0457L115.734 28.9923C116.548 31.1162 118.273 31.8474 120.516 31.8474C122.957 31.8474 125.123 30.7344 125.123 28.1455C125.123 25.3729 122.991 24.743 120.703 24.4422Z" fill="white"/>
<path d="M131.742 19.9261H129.687V31.5488H131.742V19.9261Z" fill="white"/>
<path d="M138.16 29.8905C136.829 29.8905 135.564 29.325 135.078 28.0479L133.353 28.9931C134.168 31.1163 135.893 31.8467 138.133 31.8467C140.573 31.8467 142.742 30.7352 142.742 28.1463C142.742 25.3737 140.606 24.7445 138.32 24.4422C137.005 24.2759 135.881 23.996 135.881 22.9843C135.881 22.1194 136.612 21.4375 138.146 21.4375C139.34 21.4375 140.373 22.0688 140.749 22.7305L142.393 21.8367C141.566 20.0396 139.79 19.5261 138.086 19.5261C136.062 19.5413 133.835 20.5227 133.835 22.9156C133.835 25.5233 135.905 26.1547 138.146 26.4338C139.603 26.6037 140.681 27.05 140.681 28.1463C140.681 29.406 139.463 29.8905 138.16 29.8905Z" fill="white"/>
<path d="M151.99 29.5246H146.35V19.9275H144.28V31.548H151.99V29.5246Z" fill="white"/>
<path d="M157.28 27.3146L159.316 22.3668L161.357 27.3146H157.28ZM160.445 19.9275H158.191L153.27 31.5495H155.51L156.452 29.3561H162.186L163.111 31.5495H165.367L160.445 19.9275Z" fill="white"/>
<path d="M168.949 23.1007L172.447 28.1658H172.854L176.428 23.1159V31.5523H178.494V19.9275H176.129L172.698 24.9274L169.265 19.9275H166.882V31.5523H168.949V23.1007Z" fill="white"/>
<path d="M182.193 19.9261H180.141V31.5488H182.193V19.9261Z" fill="white"/>
<path d="M192.251 28.5787C191.531 29.3409 190.447 29.7567 189.493 29.7567C186.782 29.7567 185.731 27.7456 185.717 25.8198C185.706 23.8781 186.839 21.7868 189.493 21.7868C190.447 21.7868 191.421 22.1375 192.143 22.8838L193.523 21.4736C192.393 20.2905 190.981 19.6932 189.493 19.6932C185.53 19.6932 183.661 22.7789 183.684 25.8198C183.7 28.8427 185.417 31.8141 189.493 31.8141C191.074 31.8141 192.536 31.2674 193.66 30.0887L192.251 28.5787Z" fill="white"/>
</svg>
